PathFileType	4	(X/Y/Z) shrug_0kg_1.trc																										
DataRate	CameraRate	NumFrames	NumMarkers	Units	OrigDataRate	OrigDataStartFrame	OrigNumFrames																					
100	100	29	9	mm	100	397	462																					
Frame#	Time	gu			centelbow			EpL			centpxt8			centijc7			ij			ts			aa			ai		
		X1	Y1	Z1	X2	Y2	Z2	X3	Y3	Z3	X4	Y4	Z4	X5	Y5	Z5	X6	Y6	Z6	X7	Y7	Z7	X8	Y8	Z8	X9	Y9	Z9
396	3.96	-82.297	-12.53	164.694	-110.97	-254.947	202.058	-88.565	-250.037	224.714	-46.816	-153.158	-8.669	-46.816	31.938	-8.669	0	0	0	-139.958	30.451	53.679	-108.951	26.458	168.776	-164.235	-80.141	61.783
397	3.97	-82.311	-12.57	164.782	-110.973	-254.985	202.169	-88.572	-250.071	224.829	-46.816	-153.158	-8.669	-46.816	31.938	-8.669	0	0	0	-139.924	30.416	53.764	-108.948	26.465	168.872	-164.176	-80.18	61.895
398	3.98	-82.228	-12.512	164.826	-110.836	-254.934	202.205	-88.439	-250.015	224.868	-46.816	-153.158	-8.669	-46.816	31.938	-8.669	0	0	0	-139.927	30.277	53.906	-108.982	26.349	169.023	-164.171	-80.32	62.05
399	3.99	-82.172	-12.433	164.85	-110.727	-254.861	202.23	-88.329	-249.938	224.891	-46.816	-153.158	-8.669	-46.816	31.938	-8.669	0	0	0	-139.984	30.127	54.064	-109.065	26.216	169.188	-164.24	-80.466	62.221
400	4	-82.216	-12.384	164.837	-110.722	-254.815	202.242	-88.319	-249.886	224.897	-46.816	-153.158	-8.669	-46.816	31.938	-8.669	0	0	0	-140.066	30.083	54.166	-109.15	26.191	169.292	-164.33	-80.507	62.344
401	4.01	-82.329	-12.36	164.831	-110.785	-254.792	202.27	-88.377	-249.857	224.919	-46.816	-153.158	-8.669	-46.816	31.938	-8.669	0	0	0	-140.145	30.109	54.166	-109.2	26.235	169.284	-164.398	-80.482	62.364
402	4.02	-82.397	-12.361	164.902	-110.822	-254.791	202.373	-88.414	-249.85	225.02	-46.816	-153.158	-8.669	-46.816	31.938	-8.669	0	0	0	-140.167	30.079	54.141	-109.188	26.216	169.25	-164.408	-80.513	62.353
403	4.03	-82.296	-12.393	164.992	-110.72	-254.817	202.501	-88.313	-249.872	225.148	-46.816	-153.158	-8.669	-46.816	31.938	-8.669	0	0	0	-140.095	30.009	54.199	-109.108	26.155	169.307	-164.334	-80.583	62.423
404	4.04	-82.049	-12.424	164.938	-110.466	-254.841	202.495	-88.053	-249.893	225.136	-46.816	-153.158	-8.669	-46.816	31.938	-8.669	0	0	0	-139.964	30.003	54.279	-108.992	26.168	169.391	-164.204	-80.587	62.517
405	4.05	-81.878	-12.387	164.773	-110.249	-254.804	202.372	-87.83	-249.849	225.005	-46.816	-153.158	-8.669	-46.816	31.938	-8.669	0	0	0	-139.889	30.072	54.262	-108.931	26.261	169.379	-164.123	-80.518	62.518
406	4.06	-81.999	-12.261	164.77	-110.292	-254.68	202.406	-87.875	-249.715	225.039	-46.816	-153.158	-8.669	-46.816	31.938	-8.669	0	0	0	-139.975	30.152	54.188	-109.021	26.367	169.307	-164.198	-80.439	62.465
407	4.07	-82.29	-12.107	164.984	-110.493	-254.529	202.673	-88.081	-249.549	225.308	-46.816	-153.158	-8.669	-46.816	31.938	-8.669	0	0	0	-140.158	30.194	54.124	-109.196	26.44	169.241	-164.365	-80.398	62.427
408	4.08	-82.382	-11.998	165.135	-110.492	-254.42	202.89	-88.081	-249.426	225.522	-46.816	-153.158	-8.669	-46.816	31.938	-8.669	0	0	0	-140.219	30.202	54.049	-109.236	26.484	169.162	-164.403	-80.393	62.386
409	4.09	-82.128	-11.906	165.117	-110.152	-254.329	202.933	-87.735	-249.324	225.557	-46.816	-153.158	-8.669	-46.816	31.938	-8.669	0	0	0	-140.038	30.247	54.001	-109.041	26.572	169.111	-164.198	-80.35	62.376
410	4.1	-81.749	-11.776	165.112	-109.684	-254.201	202.98	-87.261	-249.184	225.596	-46.816	-153.158	-8.669	-46.816	31.938	-8.669	0	0	0	-139.734	30.338	54.061	-108.745	26.718	169.175	-163.863	-80.263	62.478
411	4.11	-81.505	-11.642	165.178	-109.34	-254.07	203.096	-86.914	-249.041	225.705	-46.816	-153.158	-8.669	-46.816	31.938	-8.669	0	0	0	-139.512	30.338	54.201	-108.542	26.788	169.323	-163.603	-80.267	62.671
412	4.12	-81.444	-11.525	165.2	-109.163	-253.957	203.183	-86.73	-248.913	225.783	-46.816	-153.158	-8.669	-46.816	31.938	-8.669	0	0	0	-139.461	30.241	54.29	-108.482	26.77	169.412	-163.503	-80.37	62.825
413	4.13	-81.481	-11.375	165.182	-109.066	-253.809	203.25	-86.624	-248.749	225.837	-46.816	-153.158	-8.669	-46.816	31.938	-8.669	0	0	0	-139.538	30.237	54.281	-108.501	26.842	169.39	-163.514	-80.383	62.884
414	4.14	-81.567	-11.246	165.268	-109.043	-253.677	203.433	-86.592	-248.601	226.007	-46.816	-153.158	-8.669	-46.816	31.938	-8.669	0	0	0	-139.705	30.372	54.306	-108.593	27.047	169.396	-163.606	-80.259	62.971
415	4.15	-81.628	-11.234	165.538	-109.055	-253.656	203.798	-86.597	-248.568	226.363	-46.816	-153.158	-8.669	-46.816	31.938	-8.669	0	0	0	-139.873	30.484	54.455	-108.709	27.228	169.533	-163.713	-80.156	63.182
416	4.16	-81.572	-11.302	165.877	-108.981	-253.714	204.217	-86.516	-248.618	226.774	-46.816	-153.158	-8.669	-46.816	31.938	-8.669	0	0	0	-139.868	30.419	54.654	-108.672	27.235	169.726	-163.676	-80.223	63.449
417	4.17	-81.499	-11.361	166.113	-108.878	-253.766	204.515	-86.408	-248.663	227.064	-46.816	-153.158	-8.669	-46.816	31.938	-8.669	0	0	0	-139.763	30.178	54.835	-108.523	27.068	169.896	-163.557	-80.459	63.706
418	4.18	-81.58	-11.363	166.255	-108.917	-253.764	204.709	-86.441	-248.655	227.251	-46.816	-153.158	-8.669	-46.816	31.938	-8.669	0	0	0	-139.855	29.948	55.01	-108.552	26.907	170.057	-163.631	-80.688	63.958
419	4.19	-81.77	-11.32	166.364	-109.065	-253.718	204.867	-86.585	-248.602	227.403	-46.816	-153.158	-8.669	-46.816	31.938	-8.669	0	0	0	-140.124	29.835	55.163	-108.762	26.858	170.195	-163.867	-80.802	64.177
420	4.2	-81.871	-11.287	166.424	-109.129	-253.681	204.978	-86.649	-248.556	227.513	-46.816	-153.158	-8.669	-46.816	31.938	-8.669	0	0	0	-140.213	29.759	55.214	-108.815	26.844	170.238	-163.918	-80.882	64.285
421	4.21	-81.772	-11.274	166.503	-109.008	-253.66	205.123	-86.532	-248.526	227.66	-46.816	-153.158	-8.669	-46.816	31.938	-8.669	0	0	0	-140.014	29.708	55.135	-108.591	26.858	170.154	-163.671	-80.938	64.261
422	4.22	-81.566	-11.259	166.691	-108.804	-253.634	205.377	-86.337	-248.492	227.92	-46.816	-153.158	-8.669	-46.816	31.938	-8.669	0	0	0	-139.749	29.75	55.033	-108.303	26.964	170.047	-163.35	-80.905	64.21
423	4.23	-81.435	-11.244	166.844	-108.669	-253.612	205.575	-86.206	-248.465	228.121	-46.816	-153.158	-8.669	-46.816	31.938	-8.669	0	0	0	-139.627	29.821	55.022	-108.171	27.085	170.035	-163.19	-80.838	64.239
424	4.24	-81.427	-11.215	166.79	-108.614	-253.584	205.548	-86.15	-248.43	228.092	-46.816	-153.158	-8.669	-46.816	31.938	-8.669	0	0	0	-139.698	29.804	55.084	-108.249	27.107	170.1	-163.25	-80.855	64.335
